<?xml version="1.0" encoding="UTF-8" standalone="no" ?>
<!DOCTYPE svg PUBLIC "-//W3C//DTD SVG 1.1//EN" "http://www.w3.org/Graphics/SVG/1.1/DTD/svg11.dtd">
<svg xmlns="http://www.w3.org/2000/svg" xmlns:xlink="http://www.w3.org/1999/xlink" version="1.1" width="640" height="480" viewBox="0 0 640 480" xml:space="preserve">
<desc>Created with Fabric.js 3.6.3</desc>
<defs>
</defs>
<g transform="matrix(-1.04 0 0 1 442 155)"  >
<line style="stroke: rgb(0,0,0); stroke-width: 2; stroke-dasharray: none; stroke-linecap: butt; stroke-dashoffset: 0; stroke-linejoin: miter; stroke-miterlimit: 4; fill: rgb(0,0,0); fill-rule: nonzero; opacity: 1;"  x1="0" y1="0" x2="0" y2="0" />
</g>
<g transform="matrix(-3.06 -1.83 -1.76 2.94 315.36 91.15)"  >
<linearGradient id="SVGID_SVGID_145_415" gradientUnits="userSpaceOnUse" gradientTransform="matrix(1 0 0 1 35.72 0)"  x1="0" y1="4.999999999999999" x2="26.769999999999996" y2="4.999999999999999">
<stop offset="0%" style="stop-color:rgb(15,15,224);stop-opacity: 1"/>
<stop offset="41.463%" style="stop-color:rgb(255,0,251);stop-opacity: 1"/>
</linearGradient>
<path style="stroke: none; stroke-width: 1; stroke-dasharray: none; stroke-linecap: butt; stroke-dashoffset: 0; stroke-linejoin: miter; stroke-miterlimit: 4; fill: url(#SVGID_SVGID_145_415); fill-rule: evenodd; opacity: 1;"  transform=" translate(-49.1, -5)" d="M 35.72 5.83 l 14.3 -5.83 l 0.01 0.05 l 12.23 3.4 l 0.23 2.51 l -11.61 -1.56 l -9.33 5.6 c -0.76 -2.42 -3.02 -4.17 -5.69 -4.17 l -0.14 0 z" stroke-linecap="round" />
</g>
<g transform="matrix(-3.4 1.1 1.05 3.26 293.2 151.89)"  >
<linearGradient id="SVGID_SVGID_146_416" gradientUnits="userSpaceOnUse" gradientTransform="matrix(1 0 0 1 38.31 6.01)"  x1="0" y1="5.615" x2="25.090000000000003" y2="5.615">
<stop offset="0%" style="stop-color:rgb(51,25,219);stop-opacity: 1"/>
<stop offset="47.805%" style="stop-color:rgb(255,0,251);stop-opacity: 1"/>
</linearGradient>
<path style="stroke: none; stroke-width: 1; stroke-dasharray: none; stroke-linecap: butt; stroke-dashoffset: 0; stroke-linejoin: miter; stroke-miterlimit: 4; fill: url(#SVGID_SVGID_146_416); fill-rule: evenodd; opacity: 1;"  transform=" translate(-50.86, -11.62)" d="M 38.31 17.24 l 15.17 -0.86 l 0 -0.05 l 9.92 -7.92 l -0.78 -2.4 l -10.07 5.99 l -10.79 -1.09 c 0.05 0.29 0.07 0.59 0.07 0.89 c 0 2.42 -1.45 4.51 -3.52 5.44 z" stroke-linecap="round" />
</g>
<g transform="matrix(-3.57 0 0 3.43 344.6 135.41)"  >
<radialGradient id="SVGID_SVGID_147_417" gradientUnits="userSpaceOnUse" gradientTransform="matrix(1 0 0 1 31.61 7.54)"  cx="4.254999999999999" cy="4.255000000000001" r="4.254999999999999" fx="4.254999999999999" fy="4.255000000000001">
<stop offset="0%" style="stop-color:rgb(46,246,242);stop-opacity: 1"/>
<stop offset="100%" style="stop-color:rgb(36,0,255);stop-opacity: 1"/>
</radialGradient>
<path style="stroke: none; stroke-width: 1; stroke-dasharray: none; stroke-linecap: butt; stroke-dashoffset: 0; stroke-linejoin: miter; stroke-miterlimit: 4; fill: url(#SVGID_SVGID_147_417); fill-rule: evenodd; opacity: 1;"  transform=" translate(-35.86, -11.8)" d="M 35.86 7.54 c 2.35 0 4.26 1.91 4.26 4.26 c 0 2.35 -1.91 4.25 -4.26 4.25 c -2.35 0 -4.25 -1.9 -4.25 -4.25 c 0 -2.35 1.9 -4.26 4.25 -4.26 z" stroke-linecap="round" />
</g>
<g transform="matrix(-3.57 0 0 3.43 453.4 163.06)"  >
<path style="stroke: none; stroke-width: 1; stroke-dasharray: none; stroke-linecap: butt; stroke-dashoffset: 0; stroke-linejoin: miter; stroke-miterlimit: 4; fill: rgb(163,192,210); fill-rule: evenodd; opacity: 1;"  transform=" translate(-5.37, -19.85)" d="M 5.08 18.13 c 0.95 -0.16 1.85 0.48 2.01 1.43 c 0.16 0.95 -0.48 1.85 -1.43 2.01 c -0.95 0.16 -1.85 -0.48 -2.01 -1.43 c -0.16 -0.94 0.48 -1.84 1.43 -2.01 z" stroke-linecap="round" />
</g>
<g transform="matrix(-3.57 0 0 3.43 453.39 163.07)"  >
<path style="stroke: none; stroke-width: 1; stroke-dasharray: none; stroke-linecap: butt; stroke-dashoffset: 0; stroke-linejoin: miter; stroke-miterlimit: 4; fill: rgb(163,192,210); fill-rule: evenodd; opacity: 1;"  transform=" translate(-5.37, -19.85)" d="M 4.8 16.52 c 1.84 -0.31 3.59 0.93 3.9 2.76 c 0.31 1.84 -0.92 3.59 -2.76 3.9 c -1.84 0.32 -3.59 -0.92 -3.9 -2.76 c -0.31 -1.84 0.92 -3.59 2.76 -3.9 z" stroke-linecap="round" />
</g>
<g transform="matrix(-3.57 0 0 3.43 453.37 164.06)"  >
<radialGradient id="SVGID_SVGID_148_418" gradientUnits="userSpaceOnUse" gradientTransform="matrix(1 0 0 1 0 14.48)"  cx="5.367860370966195" cy="5.367712967555111" r="5.367860370966195" fx="5.367860370966195" fy="5.367712967555111">
<stop offset="0%" style="stop-color:rgb(8,226,215);stop-opacity: 1"/>
<stop offset="100%" style="stop-color:rgb(11,11,224);stop-opacity: 1"/>
<stop offset="100%" style="stop-color:rgb(10,10,234);stop-opacity: 1"/>
</radialGradient>
<path style="stroke: none; stroke-width: 1; stroke-dasharray: none; stroke-linecap: butt; stroke-dashoffset: 0; stroke-linejoin: miter; stroke-miterlimit: 4; fill: url(#SVGID_SVGID_148_418); fill-rule: evenodd; opacity: 1;"  transform=" translate(-5.37, -19.85)" d="M 4.47 14.56 c 2.92 -0.5 5.7 1.47 6.19 4.39 c 0.5 2.92 -1.46 5.7 -4.39 6.19 c -2.92 0.5 -5.69 -1.46 -6.19 -4.39 c -0.5 -2.92 1.46 -5.69 4.39 -6.19 z" stroke-linecap="round" />
</g>
<g transform="matrix(-3.57 0 0 3.43 398.22 151.13)"  >
<linearGradient id="SVGID_SVGID_149_419" gradientUnits="userSpaceOnUse" gradientTransform="matrix(1 0 0 1 10.11 10.96)"  x1="0" y1="5.410000000000001" x2="21.44" y2="5.410000000000001">
<stop offset="0%" style="stop-color:rgb(30,5,242);stop-opacity: 1"/>
<stop offset="100%" style="stop-color:rgb(9,234,246);stop-opacity: 1"/>
</linearGradient>
<path style="stroke: none; stroke-width: 1; stroke-dasharray: none; stroke-linecap: butt; stroke-dashoffset: 0; stroke-linejoin: miter; stroke-miterlimit: 4; fill: url(#SVGID_SVGID_149_419); fill-rule: evenodd; opacity: 1;"  transform=" translate(-20.83, -16.37)" d="M 10.11 15.03 l 19.83 -4.07 c -0.03 0.28 -0.05 0.55 -0.05 0.84 c 0 1.6 0.63 3.06 1.66 4.13 l -19.6 5.85 c 0.17 -0.58 0.27 -1.19 0.28 -1.83 c 0.02 -1.94 -0.8 -3.7 -2.12 -4.92 z" stroke-linecap="round" />
</g>
<g transform="matrix(-3.57 0 0 3.43 433.44 204.42)"  >
<linearGradient id="SVGID_SVGID_150_420" gradientUnits="userSpaceOnUse" gradientTransform="matrix(1 0 0 1 4.7 23.53)"  x1="0" y1="8.380000000000003" x2="12.52" y2="8.380000000000003">
<stop offset="0%" style="stop-color:rgb(38,2,254);stop-opacity: 1"/>
<stop offset="100%" style="stop-color:rgb(10,234,225);stop-opacity: 1"/>
</linearGradient>
<path style="stroke: none; stroke-width: 1; stroke-dasharray: none; stroke-linecap: butt; stroke-dashoffset: 0; stroke-linejoin: miter; stroke-miterlimit: 4; fill: url(#SVGID_SVGID_150_420); fill-rule: evenodd; opacity: 1;"  transform=" translate(-10.96, -31.91)" d="M 11.01 23.53 l 6.21 13.7 c -0.45 0 -0.9 0.03 -1.35 0.11 c -2.04 0.35 -3.76 1.44 -4.95 2.95 l -6.22 -13.74 c 2.5 0.28 4.95 -0.88 6.31 -3.02 z" stroke-linecap="round" />
</g>
<g transform="matrix(-3.57 0 0 3.43 412.07 299.05)"  >
<linearGradient id="SVGID_SVGID_151_421" gradientUnits="userSpaceOnUse" gradientTransform="matrix(1 0 0 1 -4.83 -1.75)"  x1="0" y1="1.745000000000001" x2="9.63" y2="1.745000000000001">
<stop offset="0%" style="stop-color:rgb(12,234,238);stop-opacity: 1"/>
<stop offset="100%" style="stop-color:rgb(0,18,255);stop-opacity: 1"/>
</linearGradient>
<polygon style="stroke: none; stroke-width: 1; stroke-dasharray: none; stroke-linecap: butt; stroke-dashoffset: 0; stroke-linejoin: miter; stroke-miterlimit: 4; fill: url(#SVGID_SVGID_151_421); fill-rule: evenodd; opacity: 1;"  points="-4.81,-1.75 4.82,-1.75 4.82,1.74 -4.81,1.74 " />
</g>
<g transform="matrix(-3.57 0 0 3.43 410.94 278.78)"  >
<linearGradient id="SVGID_SVGID_152_422" gradientUnits="userSpaceOnUse" gradientTransform="matrix(1 0 0 1 11.27 50.52)"  x1="0" y1="3.080000000000002" x2="12" y2="3.080000000000002">
<stop offset="0%" style="stop-color:rgb(6,221,240);stop-opacity: 1"/>
<stop offset="100%" style="stop-color:rgb(45,0,255);stop-opacity: 1"/>
</linearGradient>
<path style="stroke: none; stroke-width: 1; stroke-dasharray: none; stroke-linecap: butt; stroke-dashoffset: 0; stroke-linejoin: miter; stroke-miterlimit: 4; fill: url(#SVGID_SVGID_152_422); fill-rule: evenodd; opacity: 1;"  transform=" translate(-17.27, -53.6)" d="M 23.27 50.52 l -0.05 6.16 l -11.95 0 l 0.02 -5.97 c 1.47 1.58 3.57 2.57 5.91 2.57 c 2.42 0 4.6 -1.07 6.07 -2.76 z" stroke-linecap="round" />
</g>
<g transform="matrix(-3.57 0 0 3.43 394.25 323.5)"  >
<linearGradient id="SVGID_SVGID_153_423" gradientUnits="userSpaceOnUse" gradientTransform="matrix(1 0 0 1 -14.78 -3.65)"  x1="0" y1="3.6499999999999986" x2="29.56" y2="3.6499999999999986">
<stop offset="0%" style="stop-color:rgb(12,224,236);stop-opacity: 1"/>
<stop offset="100%" style="stop-color:rgb(81,11,236);stop-opacity: 1"/>
</linearGradient>
<polygon style="stroke: none; stroke-width: 1; stroke-dasharray: none; stroke-linecap: butt; stroke-dashoffset: 0; stroke-linejoin: miter; stroke-miterlimit: 4; fill: url(#SVGID_SVGID_153_423); fill-rule: evenodd; opacity: 1;"  points="-14.78,-3.65 14.78,-3.65 14.78,3.65 -14.78,3.65 " />
</g>
<g transform="matrix(-3.57 0 0 3.43 411.26 250.1)"  >
<path style="stroke: none; stroke-width: 1; stroke-dasharray: none; stroke-linecap: butt; stroke-dashoffset: 0; stroke-linejoin: miter; stroke-miterlimit: 4; fill: rgb(163,192,210); fill-rule: evenodd; opacity: 1;"  transform=" translate(-17.2, -45.22)" d="M 17.2 43.11 c 1.16 0 2.11 0.95 2.11 2.11 c 0 1.17 -0.95 2.12 -2.11 2.12 c -1.17 0 -2.12 -0.95 -2.12 -2.12 c 0 -1.16 0.95 -2.11 2.12 -2.11 z" stroke-linecap="round" />
</g>
<g transform="matrix(-3.57 0 0 3.43 411.26 250.1)"  >
<path style="stroke: none; stroke-width: 1; stroke-dasharray: none; stroke-linecap: butt; stroke-dashoffset: 0; stroke-linejoin: miter; stroke-miterlimit: 4; fill: rgb(163,192,210); fill-rule: evenodd; opacity: 1;"  transform=" translate(-17.2, -45.22)" d="M 17.2 41.13 c 2.26 0 4.09 1.83 4.09 4.09 c 0 2.27 -1.83 4.1 -4.09 4.1 c -2.26 0 -4.1 -1.83 -4.1 -4.1 c 0 -2.26 1.84 -4.09 4.1 -4.09 z" stroke-linecap="round" />
</g>
<g transform="matrix(-3.57 0 0 3.43 411.25 250.11)"  >
<radialGradient id="SVGID_SVGID_154_424" gradientUnits="userSpaceOnUse" gradientTransform="matrix(1 0 0 1 11.13 39.16)"  cx="6.0649999999999995" cy="6.065000000000001" r="6.0649999999999995" fx="6.0649999999999995" fy="6.065000000000001">
<stop offset="0%" style="stop-color:rgb(9,232,244);stop-opacity: 1"/>
<stop offset="100%" style="stop-color:rgb(0,9,255);stop-opacity: 1"/>
</radialGradient>
<path style="stroke: none; stroke-width: 1; stroke-dasharray: none; stroke-linecap: butt; stroke-dashoffset: 0; stroke-linejoin: miter; stroke-miterlimit: 4; fill: url(#SVGID_SVGID_154_424); fill-rule: evenodd; opacity: 1;"  transform=" translate(-17.2, -45.22)" d="M 17.2 39.16 c 3.35 0 6.06 2.72 6.06 6.06 c 0 3.35 -2.71 6.07 -6.06 6.07 c -3.35 0 -6.07 -2.72 -6.07 -6.07 c 0 -3.34 2.72 -6.06 6.07 -6.06 z" stroke-linecap="round" />
</g>
</svg>