<?xml version="1.0" encoding="UTF-8" standalone="no" ?>
<!DOCTYPE svg PUBLIC "-//W3C//DTD SVG 1.1//EN" "http://www.w3.org/Graphics/SVG/1.1/DTD/svg11.dtd">
<svg xmlns="http://www.w3.org/2000/svg" xmlns:xlink="http://www.w3.org/1999/xlink" version="1.1" width="640" height="480" viewBox="0 0 640 480" xml:space="preserve">
<desc>Created with Fabric.js 3.6.3</desc>
<defs>
</defs>
<g transform="matrix(1 0 0 1 336.52 239.39)"  >
<g style=""   >
		<g transform="matrix(-1.04 0 0 1 253.48 128.61)"  >
<line style="stroke: rgb(0,0,0); stroke-width: 2; stroke-dasharray: none; stroke-linecap: butt; stroke-dashoffset: 0; stroke-linejoin: miter; stroke-miterlimit: 4; fill: rgb(0,0,0); fill-rule: nonzero; opacity: 1;"  x1="0" y1="0" x2="0" y2="0" />
</g>
		<g transform="matrix(-4.01 -1.3 1.25 -3.86 -190.91 -99.38)"  >
<linearGradient id="SVGID_SVGID_SVGID_478_15_245" gradientUnits="userSpaceOnUse" gradientTransform="matrix(1 0 0 1 35.72 0)"  x1="0" y1="4.999999999999999" x2="26.769999999999996" y2="4.999999999999999">
<stop offset="0%" style="stop-color:rgb(218,218,234);stop-opacity: 1"/>
<stop offset="35.61%" style="stop-color:rgb(255,0,251);stop-opacity: 1"/>
</linearGradient>
<path style="stroke: none; stroke-width: 1; stroke-dasharray: none; stroke-linecap: butt; stroke-dashoffset: 0; stroke-linejoin: miter; stroke-miterlimit: 4; fill: url(#SVGID_SVGID_SVGID_478_15_245); fill-rule: evenodd; opacity: 1;"  transform=" translate(-49.1, -5)" d="M 35.72 5.83 l 14.3 -5.83 l 0.01 0.05 l 12.23 3.4 l 0.23 2.51 l -11.61 -1.56 l -9.33 5.6 c -0.76 -2.42 -3.02 -4.17 -5.69 -4.17 l -0.14 0 z" stroke-linecap="round" />
</g>
		<g transform="matrix(-2.45 -3.18 3.05 -2.35 -164.16 -167.55)"  >
<linearGradient id="SVGID_SVGID_SVGID_479_16_246" gradientUnits="userSpaceOnUse" gradientTransform="matrix(1 0 0 1 38.31 6.01)"  x1="0" y1="5.615" x2="25.090000000000003" y2="5.615">
<stop offset="0%" style="stop-color:rgb(214,210,234);stop-opacity: 1"/>
<stop offset="31.707%" style="stop-color:rgb(255,0,251);stop-opacity: 1"/>
</linearGradient>
<path style="stroke: none; stroke-width: 1; stroke-dasharray: none; stroke-linecap: butt; stroke-dashoffset: 0; stroke-linejoin: miter; stroke-miterlimit: 4; fill: url(#SVGID_SVGID_SVGID_479_16_246); fill-rule: evenodd; opacity: 1;"  transform=" translate(-50.86, -11.62)" d="M 38.31 17.24 l 15.17 -0.86 l 0 -0.05 l 9.92 -7.92 l -0.78 -2.4 l -10.07 5.99 l -10.79 -1.09 c 0.05 0.29 0.07 0.59 0.07 0.89 c 0 2.42 -1.45 4.51 -3.52 5.44 z" stroke-linecap="round" />
</g>
		<g transform="matrix(-1.57 0 0 1.57 37.35 -66.18)"  >
<line style="stroke: rgb(0,0,0); stroke-width: 2; stroke-dasharray: none; stroke-linecap: butt; stroke-dashoffset: 0; stroke-linejoin: miter; stroke-miterlimit: 4; fill: rgb(0,0,0); fill-rule: nonzero; opacity: 1;"  x1="0" y1="0" x2="0" y2="0" />
</g>
		<g transform="matrix(-1.57 0 0 1.57 38.91 -52.04)"  >
<line style="stroke: rgb(0,0,0); stroke-width: 2; stroke-dasharray: none; stroke-linecap: butt; stroke-dashoffset: 0; stroke-linejoin: miter; stroke-miterlimit: 4; fill: rgb(0,0,0); fill-rule: nonzero; opacity: 1;"  x1="0" y1="0" x2="0" y2="0" />
</g>
		<g transform="matrix(-1.57 0 0 1.57 38.91 -52.04)"  >
<line style="stroke: rgb(0,0,0); stroke-width: 2; stroke-dasharray: none; stroke-linecap: butt; stroke-dashoffset: 0; stroke-linejoin: miter; stroke-miterlimit: 4; fill: rgb(0,0,0); fill-rule: nonzero; opacity: 1;"  x1="0" y1="0" x2="0" y2="0" />
</g>
		<g transform="matrix(-1.62 -0.02 -0.02 1.62 -124.9 -112.42)"  >
<radialGradient id="SVGID_SVGID_SVGID_490_27_257" gradientUnits="userSpaceOnUse" gradientTransform="matrix(1 0 0 1 105.71 33.5)"  cx="14.219999999999999" cy="14.219999999999999" r="14.219999999999999" fx="14.219999999999999" fy="14.219999999999999">
<stop offset="0%" style="stop-color:rgb(213,220,226);stop-opacity: 1"/>
<stop offset="61.463%" style="stop-color:rgb(240,28,229);stop-opacity: 1"/>
</radialGradient>
<path style="stroke: none; stroke-width: 1; stroke-dasharray: none; stroke-linecap: butt; stroke-dashoffset: 0; stroke-linejoin: miter; stroke-miterlimit: 4; fill: url(#SVGID_SVGID_SVGID_490_27_257); fill-rule: evenodd; opacity: 1;"  transform=" translate(-119.93, -47.72)" d="M 119.92 33.5 c 7.86 0 14.23 6.37 14.23 14.22 c 0 7.86 -6.37 14.22 -14.23 14.22 c -7.85 0 -14.21 -6.36 -14.21 -14.22 c 0 -7.85 6.36 -14.22 14.21 -14.22 z" stroke-linecap="round" />
</g>
		<g transform="matrix(-1.62 -0.02 -0.02 1.62 34.66 -55.98)"  >
<radialGradient id="SVGID_SVGID_SVGID_491_28_258" gradientUnits="userSpaceOnUse" gradientTransform="matrix(1 0 0 1 0 56.7)"  cx="17.959043211488694" cy="17.95778178793225" r="17.959043211488694" fx="17.959043211488694" fy="17.95778178793225">
<stop offset="0%" style="stop-color:rgb(209,209,232);stop-opacity: 1"/>
<stop offset="69.268%" style="stop-color:rgb(234,11,210);stop-opacity: 1"/>
</radialGradient>
<path style="stroke: none; stroke-width: 1; stroke-dasharray: none; stroke-linecap: butt; stroke-dashoffset: 0; stroke-linejoin: miter; stroke-miterlimit: 4; fill: url(#SVGID_SVGID_SVGID_491_28_258); fill-rule: evenodd; opacity: 1;"  transform=" translate(-17.96, -74.66)" d="M 14.94 56.96 c 9.78 -1.67 19.05 4.91 20.72 14.68 c 1.67 9.78 -4.91 19.05 -14.68 20.72 c -9.78 1.66 -19.05 -4.91 -20.72 -14.69 c -1.67 -9.77 4.91 -19.05 14.68 -20.71 z" stroke-linecap="round" />
</g>
		<g transform="matrix(-1.62 -0.1 -0.1 1.62 -46.8 -83.87)"  >
<linearGradient id="SVGID_SVGID_SVGID_492_29_259" gradientUnits="userSpaceOnUse" gradientTransform="matrix(1 0 0 1 33.81 44.93)"  x1="0" y1="18.095000000000002" x2="71.68" y2="18.095000000000002">
<stop offset="0%" style="stop-color:rgb(234,138,234);stop-opacity: 1"/>
<stop offset="42.439%" style="stop-color:rgb(240,28,229);stop-opacity: 1"/>
</linearGradient>
<path style="stroke: none; stroke-width: 1; stroke-dasharray: none; stroke-linecap: butt; stroke-dashoffset: 0; stroke-linejoin: miter; stroke-miterlimit: 4; fill: url(#SVGID_SVGID_SVGID_492_29_259); fill-rule: evenodd; opacity: 1;"  transform=" translate(-69.65, -63.03)" d="M 33.81 58.54 l 66.32 -13.61 c -0.12 0.92 -0.19 1.85 -0.19 2.79 c 0 5.37 2.11 10.24 5.55 13.83 l -65.54 19.57 c 0.58 -1.94 0.91 -4 0.94 -6.13 c 0.07 -6.49 -2.66 -12.36 -7.08 -16.45 z" stroke-linecap="round" />
</g>
		<g transform="matrix(-1.64 -0.05 -0.05 1.64 1.14 12.38)"  >
<linearGradient id="SVGID_SVGID_SVGID_493_30_260" gradientUnits="userSpaceOnUse" gradientTransform="matrix(1 0 0 1 15.71 86.97)"  x1="0" y1="28.015" x2="41.86" y2="28.015">
<stop offset="65.366%" style="stop-color:rgb(230,15,198);stop-opacity: 1"/>
<stop offset="100%" style="stop-color:rgb(206,220,224);stop-opacity: 1"/>
</linearGradient>
<path style="stroke: none; stroke-width: 1; stroke-dasharray: none; stroke-linecap: butt; stroke-dashoffset: 0; stroke-linejoin: miter; stroke-miterlimit: 4; fill: url(#SVGID_SVGID_SVGID_493_30_260); fill-rule: evenodd; opacity: 1;"  transform=" translate(-36.64, -114.98)" d="M 36.82 86.97 l 20.75 45.78 c -1.48 0.01 -2.98 0.13 -4.49 0.39 c -6.82 1.16 -12.6 4.81 -16.56 9.86 l -20.81 -45.94 c 8.36 0.95 16.57 -2.96 21.11 -10.09 z" stroke-linecap="round" />
</g>
		<g transform="matrix(1.62 -0.02 0.02 1.62 -37.62 165.19)"  >
<linearGradient id="SVGID_SVGID_SVGID_494_31_261" gradientUnits="userSpaceOnUse" gradientTransform="matrix(1 0 0 1 -16.1 -5.85)"  x1="0" y1="5.85" x2="32.2" y2="5.85">
<stop offset="0%" style="stop-color:rgb(17,166,230);stop-opacity: 1"/>
<stop offset="100%" style="stop-color:rgb(68,13,238);stop-opacity: 1"/>
</linearGradient>
<polygon style="stroke: none; stroke-width: 1; stroke-dasharray: none; stroke-linecap: butt; stroke-dashoffset: 0; stroke-linejoin: miter; stroke-miterlimit: 4; fill: url(#SVGID_SVGID_SVGID_494_31_261); fill-rule: evenodd; opacity: 1;"  points="-16.1,-5.85 16.1,-5.85 16.1,5.85 -16.1,5.85 " />
</g>
		<g transform="matrix(-1.62 -0.02 -0.02 1.62 -36.51 128.27)"  >
<radialGradient id="SVGID_SVGID_SVGID_495_32_262" gradientUnits="userSpaceOnUse" gradientTransform="matrix(1 0 0 1 37.68 177.2)"  cx="20.075" cy="10.305000000000007" r="20.075" fx="20.075" fy="10.305000000000007">
<stop offset="0%" style="stop-color:rgb(229,228,234);stop-opacity: 1"/>
<stop offset="35.61%" style="stop-color:rgb(213,15,217);stop-opacity: 1"/>
</radialGradient>
<path style="stroke: none; stroke-width: 1; stroke-dasharray: none; stroke-linecap: butt; stroke-dashoffset: 0; stroke-linejoin: miter; stroke-miterlimit: 4; fill: url(#SVGID_SVGID_SVGID_495_32_262); fill-rule: evenodd; opacity: 1;"  transform=" translate(-57.75, -187.5)" d="M 77.83 177.2 l -0.17 20.61 l -39.98 0 l 0.08 -19.97 c 4.92 5.3 11.95 8.61 19.75 8.61 c 8.1 0 15.38 -3.58 20.32 -9.25 z" stroke-linecap="round" />
</g>
		<g transform="matrix(1.62 -0.02 0.02 1.62 -10.29 201.81)"  >
<linearGradient id="SVGID_SVGID_SVGID_496_33_263" gradientUnits="userSpaceOnUse" gradientTransform="matrix(1 0 0 1 -49.43 -12.19)"  x1="0" y1="12.204999999999998" x2="98.86000000000001" y2="12.204999999999998">
<stop offset="0%" style="stop-color:rgb(30,25,199);stop-opacity: 1"/>
<stop offset="100%" style="stop-color:rgb(5,178,234);stop-opacity: 1"/>
</linearGradient>
<polygon style="stroke: none; stroke-width: 1; stroke-dasharray: none; stroke-linecap: butt; stroke-dashoffset: 0; stroke-linejoin: miter; stroke-miterlimit: 4; fill: url(#SVGID_SVGID_SVGID_496_33_263); fill-rule: evenodd; opacity: 1;"  points="-49.43,-12.21 49.43,-12.21 49.43,12.21 -49.43,12.21 " />
</g>
		<g transform="matrix(-1.62 -0.02 -0.02 1.62 -35.78 83.1)"  >
<path style="stroke: none; stroke-width: 1; stroke-dasharray: none; stroke-linecap: butt; stroke-dashoffset: 0; stroke-linejoin: miter; stroke-miterlimit: 4; fill: rgb(163,192,210); fill-rule: evenodd; opacity: 1;"  transform=" translate(-57.5, -159.5)" d="M 57.51 152.44 c 3.9 0 7.06 3.16 7.06 7.06 c 0 3.9 -3.16 7.06 -7.06 7.06 c -3.9 0 -7.07 -3.16 -7.07 -7.06 c 0 -3.9 3.17 -7.06 7.07 -7.06 z" stroke-linecap="round" />
</g>
		<g transform="matrix(-1.62 -0.02 -0.02 1.62 -35.78 83.1)"  >
<path style="stroke: none; stroke-width: 1; stroke-dasharray: none; stroke-linecap: butt; stroke-dashoffset: 0; stroke-linejoin: miter; stroke-miterlimit: 4; fill: rgb(163,192,210); fill-rule: evenodd; opacity: 1;"  transform=" translate(-57.51, -159.5)" d="M 57.51 145.81 c 7.56 0 13.69 6.13 13.69 13.69 c 0 7.56 -6.13 13.69 -13.69 13.69 c -7.57 0 -13.69 -6.13 -13.69 -13.69 c 0 -7.56 6.12 -13.69 13.69 -13.69 z" stroke-linecap="round" />
</g>
		<g transform="matrix(-1.62 -0.02 -0.02 1.62 -35.72 83.15)"  >
<radialGradient id="SVGID_SVGID_SVGID_497_34_264" gradientUnits="userSpaceOnUse" gradientTransform="matrix(1 0 0 1 37.23 139.23)"  cx="20.275" cy="20.275000000000006" r="20.275" fx="20.275" fy="20.275000000000006">
<stop offset="0%" style="stop-color:rgb(223,222,234);stop-opacity: 1"/>
<stop offset="62.439%" style="stop-color:rgb(224,15,228);stop-opacity: 1"/>
</radialGradient>
<path style="stroke: none; stroke-width: 1; stroke-dasharray: none; stroke-linecap: butt; stroke-dashoffset: 0; stroke-linejoin: miter; stroke-miterlimit: 4; fill: url(#SVGID_SVGID_SVGID_497_34_264); fill-rule: evenodd; opacity: 1;"  transform=" translate(-57.51, -159.5)" d="M 57.51 139.23 c 11.2 0 20.27 9.07 20.27 20.27 c 0 11.2 -9.07 20.28 -20.27 20.28 c -11.2 0 -20.28 -9.08 -20.28 -20.28 c 0 -11.2 9.08 -20.27 20.28 -20.27 z" stroke-linecap="round" />
</g>
</g>
</g>
</svg>