<?xml version="1.0" encoding="UTF-8" standalone="no" ?>
<!DOCTYPE svg PUBLIC "-//W3C//DTD SVG 1.1//EN" "http://www.w3.org/Graphics/SVG/1.1/DTD/svg11.dtd">
<svg xmlns="http://www.w3.org/2000/svg" xmlns:xlink="http://www.w3.org/1999/xlink" version="1.1" width="640" height="480" viewBox="0 0 640 480" xml:space="preserve">
<desc>Created with Fabric.js 3.6.3</desc>
<defs>
</defs>
<g transform="matrix(-1 0 0 1 291.88 123)"  >
<line style="stroke: rgb(0,0,0); stroke-width: 2; stroke-dasharray: none; stroke-linecap: butt; stroke-dashoffset: 0; stroke-linejoin: miter; stroke-miterlimit: 4; fill: rgb(0,0,0); fill-rule: nonzero; opacity: 1;"  x1="0" y1="0" x2="0" y2="0" />
</g>
<g transform="matrix(-1 0 0 1 292.88 132)"  >
<line style="stroke: rgb(0,0,0); stroke-width: 2; stroke-dasharray: none; stroke-linecap: butt; stroke-dashoffset: 0; stroke-linejoin: miter; stroke-miterlimit: 4; fill: rgb(0,0,0); fill-rule: nonzero; opacity: 1;"  x1="0" y1="0" x2="0" y2="0" />
</g>
<g transform="matrix(-1 0 0 1 292.88 132)"  >
<line style="stroke: rgb(0,0,0); stroke-width: 2; stroke-dasharray: none; stroke-linecap: butt; stroke-dashoffset: 0; stroke-linejoin: miter; stroke-miterlimit: 4; fill: rgb(0,0,0); fill-rule: nonzero; opacity: 1;"  x1="0" y1="0" x2="0" y2="0" />
</g>
<g transform="matrix(-0.92 0.46 0.46 0.92 124.52 178.44)"  >
<linearGradient id="SVGID_SVGID_734_525" gradientUnits="userSpaceOnUse" gradientTransform="matrix(1 0 0 1 120.9 0)"  x1="0" y1="45.43" x2="88.13999999999999" y2="45.43">
<stop offset="0%" style="stop-color:rgb(24,191,182);stop-opacity: 1"/>
<stop offset="53.171%" style="stop-color:rgb(0,0,255);stop-opacity: 1"/>
</linearGradient>
<path style="stroke: none; stroke-width: 1; stroke-dasharray: none; stroke-linecap: butt; stroke-dashoffset: 0; stroke-linejoin: miter; stroke-miterlimit: 4; fill: url(#SVGID_SVGID_734_525); fill-rule: evenodd; opacity: 1;"  transform=" translate(-164.97, -45.43)" d="M 124.5 67.28 l 39.89 23.58 l 0.08 -0.16 l 42.29 -3.65 l 2.28 -8.11 l -39.12 -2.01 l -30.62 -23.9 c -1.94 7.06 -7.62 12.58 -14.8 14.25 z m -3.6 -39.61 l 36.03 -27.67 l 0.09 0.16 l 42.43 0.89 l 2.81 7.94 l -38.91 4.56 l -25.6 24.93 c -3.2 -6.16 -9.5 -10.46 -16.85 -10.81 z" stroke-linecap="round" />
</g>
<g transform="matrix(-1.03 -0.01 -0.01 1.03 166.85 159.98)"  >
<radialGradient id="SVGID_649" gradientUnits="userSpaceOnUse" gradientTransform="matrix(1 0 0 1 105.71 33.5)"  cx="14.219999999999999" cy="14.219999999999999" r="14.219999999999999" fx="14.219999999999999" fy="14.219999999999999">
<stop offset="0%" style="stop-color:rgba(28, 226, 223, 1);"/>
<stop offset="78.049%" style="stop-color:rgba(50, 28, 240, 1);"/>
</radialGradient>
<path style="stroke: none; stroke-width: 1; stroke-dasharray: none; stroke-linecap: butt; stroke-dashoffset: 0; stroke-linejoin: miter; stroke-miterlimit: 4; fill: url(#SVGID_649); fill-rule: evenodd; opacity: 1;"  transform=" translate(-119.93, -47.72)" d="M 119.92 33.5 c 7.86 0 14.23 6.37 14.23 14.22 c 0 7.86 -6.37 14.22 -14.23 14.22 c -7.85 0 -14.21 -6.36 -14.21 -14.22 c 0 -7.85 6.36 -14.22 14.21 -14.22 z" stroke-linecap="round" />
</g>
<g transform="matrix(-1.03 -0.01 -0.01 1.03 270.43 119.28)"  >
<radialGradient id="SVGID_791" gradientUnits="userSpaceOnUse" gradientTransform="matrix(1 0 0 1 0 56.7)"  cx="17.959043211488694" cy="17.95778178793225" r="17.959043211488694" fx="17.959043211488694" fy="17.95778178793225">
<stop offset="0%" style="stop-color:rgba(209, 209, 232, 1);"/>
<stop offset="85.854%" style="stop-color:rgba(238, 11, 213, 1);"/>
</radialGradient>
<path style="stroke: none; stroke-width: 1; stroke-dasharray: none; stroke-linecap: butt; stroke-dashoffset: 0; stroke-linejoin: miter; stroke-miterlimit: 4; fill: url(#SVGID_791); fill-rule: evenodd; opacity: 1;"  transform=" translate(-17.96, -74.66)" d="M 14.94 56.96 c 9.78 -1.67 19.05 4.91 20.72 14.68 c 1.67 9.78 -4.91 19.05 -14.68 20.72 c -9.78 1.66 -19.05 -4.91 -20.72 -14.69 c -1.67 -9.77 4.91 -19.05 14.68 -20.71 z" stroke-linecap="round" />
</g>
<g transform="matrix(-0.82 0.62 0.62 0.82 216.36 142.02)"  >
<linearGradient id="SVGID_783" gradientUnits="userSpaceOnUse" gradientTransform="matrix(1 0 0 1 33.81 44.93)"  x1="0" y1="18.095000000000002" x2="71.68" y2="18.095000000000002">
<stop offset="81.463%" style="stop-color:rgba(240, 28, 229, 1);"/>
<stop offset="100%" style="stop-color:rgba(203, 154, 199, 1);"/>
</linearGradient>
<path style="stroke: none; stroke-width: 1; stroke-dasharray: none; stroke-linecap: butt; stroke-dashoffset: 0; stroke-linejoin: miter; stroke-miterlimit: 4; fill: url(#SVGID_783); fill-rule: evenodd; opacity: 1;"  transform=" translate(-69.65, -63.03)" d="M 33.81 58.54 l 66.32 -13.61 c -0.12 0.92 -0.19 1.85 -0.19 2.79 c 0 5.37 2.11 10.24 5.55 13.83 l -65.54 19.57 c 0.58 -1.94 0.91 -4 0.94 -6.13 c 0.07 -6.49 -2.66 -12.36 -7.08 -16.45 z" stroke-linecap="round" />
</g>
<g transform="matrix(-1.01 0.18 0.18 1.01 262 168.66)"  >
<linearGradient id="SVGID_749" gradientUnits="userSpaceOnUse" gradientTransform="matrix(1 0 0 1 15.71 86.97)"  x1="0" y1="28.015" x2="41.86" y2="28.015">
<stop offset="58.04899999999999%" style="stop-color:rgba(230, 11, 234, 1);"/>
<stop offset="93.659%" style="stop-color:rgba(220, 172, 220, 1);"/>
</linearGradient>
<path style="stroke: none; stroke-width: 1; stroke-dasharray: none; stroke-linecap: butt; stroke-dashoffset: 0; stroke-linejoin: miter; stroke-miterlimit: 4; fill: url(#SVGID_749); fill-rule: evenodd; opacity: 1;"  transform=" translate(-36.64, -114.98)" d="M 36.82 86.97 l 20.75 45.78 c -1.48 0.01 -2.98 0.13 -4.49 0.39 c -6.82 1.16 -12.6 4.81 -16.56 9.86 l -20.81 -45.94 c 8.36 0.95 16.57 -2.96 21.11 -10.09 z" stroke-linecap="round" />
</g>
<g transform="matrix(-1.03 -0.01 -0.01 1.03 245.86 267.32)"  >
<linearGradient id="SVGID_SVGID_SVGID_1815_714_530" gradientUnits="userSpaceOnUse" gradientTransform="matrix(1 0 0 1 -16.1 -5.85)"  x1="0" y1="5.8500000000000085" x2="32.199999999999996" y2="5.8500000000000085">
<stop offset="0%" style="stop-color:rgb(4,49,222);stop-opacity: 1"/>
<stop offset="100%" style="stop-color:rgb(0,215,255);stop-opacity: 1"/>
</linearGradient>
<polygon style="stroke: none; stroke-width: 1; stroke-dasharray: none; stroke-linecap: butt; stroke-dashoffset: 0; stroke-linejoin: miter; stroke-miterlimit: 4; fill: url(#SVGID_SVGID_SVGID_1815_714_530); fill-rule: evenodd; opacity: 1;"  points="-16.1,-5.85 16.1,-5.85 16.1,5.85 -16.1,5.85 " />
</g>
<g transform="matrix(-1.03 -0.01 -0.01 1.03 244.84 246.97)"  >
<linearGradient id="SVGID_SVGID_SVGID_1816_715_531" gradientUnits="userSpaceOnUse" gradientTransform="matrix(1 0 0 1 37.68 177.2)"  x1="0" y1="10.305000000000007" x2="40.15" y2="10.305000000000007">
<stop offset="0%" style="stop-color:rgb(30,24,191);stop-opacity: 1"/>
<stop offset="100%" style="stop-color:rgb(15,171,217);stop-opacity: 1"/>
</linearGradient>
<path style="stroke: none; stroke-width: 1; stroke-dasharray: none; stroke-linecap: butt; stroke-dashoffset: 0; stroke-linejoin: miter; stroke-miterlimit: 4; fill: url(#SVGID_SVGID_SVGID_1816_715_531); fill-rule: evenodd; opacity: 1;"  transform=" translate(-57.75, -187.5)" d="M 77.83 177.2 l -0.17 20.61 l -39.98 0 l 0.08 -19.97 c 4.92 5.3 11.95 8.61 19.75 8.61 c 8.1 0 15.38 -3.58 20.32 -9.25 z" stroke-linecap="round" />
</g>
<g transform="matrix(-1.03 -0.01 -0.01 1.03 228.49 290.68)"  >
<linearGradient id="SVGID_SVGID_SVGID_1817_716_532" gradientUnits="userSpaceOnUse" gradientTransform="matrix(1 0 0 1 -49.43 -12.19)"  x1="0" y1="12.204999999999998" x2="98.86000000000001" y2="12.204999999999998">
<stop offset="0%" style="stop-color:rgb(30,25,199);stop-opacity: 1"/>
<stop offset="100%" style="stop-color:rgb(5,178,234);stop-opacity: 1"/>
</linearGradient>
<polygon style="stroke: none; stroke-width: 1; stroke-dasharray: none; stroke-linecap: butt; stroke-dashoffset: 0; stroke-linejoin: miter; stroke-miterlimit: 4; fill: url(#SVGID_SVGID_SVGID_1817_716_532); fill-rule: evenodd; opacity: 1;"  points="-49.43,-12.21 49.43,-12.21 49.43,12.21 -49.43,12.21 " />
</g>
<g transform="matrix(-1.03 -0.01 -0.01 1.03 245.29 218.18)"  >
<path style="stroke: none; stroke-width: 1; stroke-dasharray: none; stroke-linecap: butt; stroke-dashoffset: 0; stroke-linejoin: miter; stroke-miterlimit: 4; fill: rgb(163,192,210); fill-rule: evenodd; opacity: 1;"  transform=" translate(-57.5, -159.5)" d="M 57.51 152.44 c 3.9 0 7.06 3.16 7.06 7.06 c 0 3.9 -3.16 7.06 -7.06 7.06 c -3.9 0 -7.07 -3.16 -7.07 -7.06 c 0 -3.9 3.17 -7.06 7.07 -7.06 z" stroke-linecap="round" />
</g>
<g transform="matrix(-1.03 -0.01 -0.01 1.03 245.29 218.19)"  >
<path style="stroke: none; stroke-width: 1; stroke-dasharray: none; stroke-linecap: butt; stroke-dashoffset: 0; stroke-linejoin: miter; stroke-miterlimit: 4; fill: rgb(163,192,210); fill-rule: evenodd; opacity: 1;"  transform=" translate(-57.51, -159.5)" d="M 57.51 145.81 c 7.56 0 13.69 6.13 13.69 13.69 c 0 7.56 -6.13 13.69 -13.69 13.69 c -7.57 0 -13.69 -6.13 -13.69 -13.69 c 0 -7.56 6.12 -13.69 13.69 -13.69 z" stroke-linecap="round" />
</g>
<g transform="matrix(-1.03 -0.01 -0.01 1.03 245.31 218.23)"  >
<radialGradient id="SVGID_583" gradientUnits="userSpaceOnUse" gradientTransform="matrix(1 0 0 1 37.23 139.23)"  cx="20.275" cy="20.275000000000006" r="20.275" fx="20.275" fy="20.275000000000006">
<stop offset="0%" style="stop-color:rgba(0, 197, 255, 1);"/>
<stop offset="73.659%" style="stop-color:rgba(30, 24, 191, 1);"/>
</radialGradient>
<path style="stroke: none; stroke-width: 1; stroke-dasharray: none; stroke-linecap: butt; stroke-dashoffset: 0; stroke-linejoin: miter; stroke-miterlimit: 4; fill: url(#SVGID_583); fill-rule: evenodd; opacity: 1;"  transform=" translate(-57.51, -159.5)" d="M 57.51 139.23 c 11.2 0 20.27 9.07 20.27 20.27 c 0 11.2 -9.07 20.28 -20.27 20.28 c -11.2 0 -20.28 -9.08 -20.28 -20.28 c 0 -11.2 9.08 -20.27 20.28 -20.27 z" stroke-linecap="round" />
</g>
</svg>